<?xml version="1.0" encoding="UTF-8"?><svg id="Layer_2" xmlns="http://www.w3.org/2000/svg" viewBox="0 0 798.68 800"><defs><style>.cls-1{fill:#f4b945;}.cls-1,.cls-2,.cls-3,.cls-4{stroke-width:0px;}.cls-2{fill:#54abd6;}.cls-3{fill:#161616;}.cls-4{fill:#eb484b;}</style></defs><g id="Layer_1-2"><path class="cls-3" d="m541.05,232.02l231.97,105.56c50.74-69.32,20.67-157.81-67.3-197.89L398.91,0,91.95,139.69C3.99,179.63-26.08,268.26,24.65,337.58l228.26-103.84,145.86-66.14,142.15,64.42h.13Z"/><path class="cls-3" d="m541.05,463.27l231.97,105.56c50.74-69.31,20.67-157.81-67.3-197.89l-306.82-139.69L91.95,370.94C3.99,410.89-26.08,499.52,24.65,568.83l228.26-103.84,145.86-66.14,142.15,64.42h.13Z"/><path class="cls-3" d="m541.05,694.44l231.97,105.56c50.74-69.32,20.67-157.81-67.3-197.89l-306.82-139.69-306.82,139.69C3.98,642.19-26.09,730.68,24.65,800l228.26-103.84,145.86-66.14,142.15,64.42h.13Z"/><path class="cls-1" d="m542.05,232.02l231.97,105.56c50.74-69.32,20.67-157.81-67.3-197.89L399.91,0,92.95,139.69C4.99,179.63-25.08,268.26,25.65,337.58l228.26-103.84,145.86-66.14,142.15,64.42h.13Z"/><path class="cls-2" d="m542.05,463.27l231.97,105.56c50.74-69.31,20.67-157.81-67.3-197.89l-306.82-139.69L92.95,370.94C4.99,410.89-25.08,499.52,25.65,568.83l228.26-103.84,145.86-66.14,142.15,64.42h.13Z"/><path class="cls-4" d="m542.05,694.44l231.97,105.56c50.74-69.32,20.67-157.81-67.3-197.89l-306.82-139.69-306.82,139.69c-88.1,40.08-118.17,128.57-67.43,197.89l228.26-103.84,145.86-66.14,142.15,64.42h.13Z"/></g></svg>